<?xml version="1.0" encoding="UTF-8" standalone="no"?>
<svg width="58px" height="98px" viewBox="0 0 58 98" version="1.1" xmlns="http://www.w3.org/2000/svg" xmlns:xlink="http://www.w3.org/1999/xlink" xmlns:sketch="http://www.bohemiancoding.com/sketch/ns">
    <!-- Generator: Sketch 3.1 (8751) - http://www.bohemiancoding.com/sketch -->
    <title>paddle</title>
    <desc>Created with Sketch.</desc>
    <defs></defs>
    <g id="Page-1" stroke="none" stroke-width="1" fill="none" fill-rule="evenodd" sketch:type="MSPage">
        <g id="Home" sketch:type="MSArtboardGroup" transform="translate(-266.000000, -62.000000)">
            <g id="paddle" sketch:type="MSLayerGroup" transform="translate(266.000000, 62.000000)">
                <g id="Page-1" sketch:type="MSShapeGroup">
                    <g id="Paddle">
                        <path d="M29,0 C43.5,-2.05128339e-15 58,16.125007 58,33 C58,49.874993 43.5,67 29,67 C14.5,67 8.81243411e-16,49.625007 0,33 C8.81243411e-16,16.374993 14.5,2.05128339e-15 29,0 L29,0 Z" id="Path-9" fill="#6B4A38"></path>
                        <path d="M24,95 C24,95 26.5,97 29,97 C31.5,97 34,95 34,95 L33,61 L25,61 L24,95 L24,95 Z" id="Path-10" stroke="#6B4A38" stroke-width="2" fill="#FAFAEF"></path>
                        <path d="M15,60 L23,64 L23,61 L15,60 L15,60 Z" id="Path-11" fill="#FAFAEF"></path>
                        <path d="M35,60 L43,64 L43,61 L35,60 L35,60 Z" id="Path-12" fill="#FAFAEF" transform="translate(39.000000, 62.000000) scale(-1, 1) translate(-39.000000, -62.000000) "></path>
                    </g>
                </g>
            </g>
        </g>
    </g>
</svg>